<?xml version="1.0" encoding="UTF-8" standalone="no"?><!DOCTYPE svg PUBLIC "-//W3C//DTD SVG 1.1//EN" "http://www.w3.org/Graphics/SVG/1.1/DTD/svg11.dtd"><svg width="100%" height="100%" viewBox="0 0 1498 1065" version="1.1" xmlns="http://www.w3.org/2000/svg" xmlns:xlink="http://www.w3.org/1999/xlink" xml:space="preserve" xmlns:serif="http://www.serif.com/" style="fill-rule:evenodd;clip-rule:evenodd;stroke-linejoin:round;stroke-miterlimit:2;"><g><rect x="1213.509" y="0" width="94.743" height="755.09"/><path d="M1213.509,0l283.948,0l0,94.743l-283.948,-0l0,-94.743Z"/><rect x="65.021" y="235.571" width="94.743" height="141.974"/><rect x="306.99" y="231.182" width="94.743" height="141.974"/><path d="M524.049,849.834l-524.049,0l0,-94.743l524.049,0l0,94.743Z"/><path d="M401.734,540.437l710.576,0l0,94.743l-710.576,-0l0,-94.743Z"/><path d="M401.734,969.743l710.576,0l0,94.743l-710.576,0l0,-94.743Z"/><rect x="0" y="325.784" width="94.743" height="524.049"/><path d="M524.049,420.528l-524.049,0l0,-94.743l524.049,0l0,94.743Z"/><rect x="1017.566" y="540.437" width="94.743" height="524.049"/></g></svg>