<?xml version="1.0" encoding="UTF-8" standalone="no"?>
<!DOCTYPE svg PUBLIC "-//W3C//DTD SVG 1.1//EN" "http://www.w3.org/Graphics/SVG/1.1/DTD/svg11.dtd">
<svg width="100%" height="100%" viewBox="0 0 558 526" version="1.1" xmlns="http://www.w3.org/2000/svg" xmlns:xlink="http://www.w3.org/1999/xlink" xml:space="preserve" xmlns:serif="http://www.serif.com/" style="fill-rule:evenodd;clip-rule:evenodd;stroke-linejoin:round;stroke-miterlimit:2;">
    <g transform="matrix(1,0,0,1,-260.440585,-107.604008)">
        <g id="V2" transform="matrix(2.140419,0,0,2.140419,-2194.300835,-267.348397)">
            <g id="LogoMark" transform="matrix(0.504402,0,0,0.504402,531.257196,-35.911595)">
                <g transform="matrix(0.473211,0.297246,-0.531914,0.846798,1036.534696,-358.686909)">
                    <path d="M1467.01,470.765C1463.773,472.291 1459.625,474.419 1452.326,479.2C1452.069,479.369 1446.72,483.069 1443.073,486.305C1440.632,488.471 1436.509,492.148 1432.864,497.663C1431.656,499.491 1428.31,504.56 1429.278,509.866C1429.462,510.874 1427.256,512.765 1426.992,512.992C1426.489,513.423 1423.58,515.917 1417.54,516.675C1416.618,516.791 1411.314,517.457 1405.909,515.517C1400.666,513.634 1399.517,510.738 1399.317,510.235C1398.408,507.944 1398.428,507.877 1399.927,505.683C1400.799,504.407 1405.941,496.624 1423.009,487.232C1424.396,486.469 1431.663,482.47 1441.039,478.101C1441.594,477.843 1441.607,477.853 1448.014,474.905C1452.267,472.948 1466.806,466.625 1467.102,466.497C1468.32,467.067 1474.223,469.83 1482.075,473.78C1485.648,475.577 1493.003,479.553 1497.422,482.252C1510.246,490.083 1525.417,501.025 1528.603,515.529C1528.65,515.745 1529.141,516.999 1528.417,520.016C1528.031,521.621 1527.442,522.859 1527.359,523.043C1525.886,526.301 1521.233,527.785 1520.448,528.036C1518.816,528.556 1516.975,528.915 1515.111,529.049C1508.986,529.489 1504.848,527.685 1504.129,527.372C1499.423,525.32 1498.759,522.492 1498.643,522.001C1498.188,520.06 1498.505,520.055 1499.298,518.148C1499.766,517.023 1499.57,516.813 1499.866,516.114C1500.371,514.917 1502.067,509.128 1499.064,501.426C1495.688,492.764 1489.143,486.307 1482.886,481.01C1480.831,479.271 1476.544,476.352 1475.966,475.959C1472.496,473.597 1469.045,471.773 1467.01,470.765Z"/>
                </g>
                <g transform="matrix(0.39025,-0.213231,0.283815,0.519431,578.423522,534.341696)">
                    <path d="M1463.615,465.525C1460.574,467.735 1456.992,470.721 1451.127,477.045C1450.978,477.205 1446.493,482.256 1443.278,487.468C1442.351,488.97 1435.562,499.429 1435.725,509.94C1435.753,511.749 1435.96,514.615 1438.74,520.016C1440.494,523.423 1442.644,526.057 1442.646,526.13C1442.703,528.246 1443.3,530.393 1442.812,532.477C1441.303,538.923 1435.242,542.142 1434.19,542.701C1433.105,543.277 1426.846,546.6 1417.99,545.43C1416.72,545.263 1409.41,544.297 1404.382,538.952C1400.87,535.219 1400.889,535.064 1400.841,530.497C1400.786,525.302 1401.364,521.321 1402.824,514.609C1405.877,500.577 1418.409,489.348 1427.157,482.314C1437.157,474.273 1450.42,465.723 1463.196,457.011C1482.769,468.167 1500.061,477.604 1512.777,488.344C1529.096,502.126 1530.476,512.559 1531.451,518.501C1531.898,521.219 1531.994,522.646 1532.086,523.713C1532.341,526.673 1532.458,526.746 1530.854,529.453C1527.913,534.419 1521.149,535.751 1520.079,535.962C1518.831,536.208 1511.737,537.606 1504.036,534.69C1503.048,534.316 1496.804,531.951 1495.308,526.633C1494.125,522.428 1495.224,522.429 1496.829,518.301C1498.187,514.809 1499.524,511.569 1497.419,504.683C1493.939,493.3 1483.587,481.464 1474.642,473.877C1469.453,469.476 1466.429,467.309 1463.615,465.525Z"/>
                </g>
                <g transform="matrix(1,0,0,1,-39.982174,-31.290397)">
                    <path d="M1456.593,896.366L1459.665,900.972C1453.561,905.159 1451.83,906.487 1446.808,909.438C1440.113,913.372 1424.434,921.993 1401.066,925.237C1395.681,925.984 1389.509,926.108 1388.501,926.128C1384.576,926.207 1375.392,926.348 1362.527,923.635C1354.406,921.923 1345.194,919.113 1334.07,913.274C1333.315,912.878 1327.743,909.814 1322.372,905.972C1315.112,900.781 1311.259,896.965 1309.065,894.789C1301.261,887.046 1294.551,878.17 1288.609,867.135C1282.992,856.705 1278.338,844.922 1275.548,830.358C1274.541,825.104 1270.167,802.385 1276.775,774.547C1286.201,734.839 1310.251,713.013 1315.457,708.061L1318.179,710.92C1314.267,714.66 1284.505,740.837 1282.431,788.583C1281.089,819.498 1292.618,841.424 1295.082,846.279C1298.248,852.516 1303.314,861.206 1312.746,871.607C1312.977,871.863 1318.86,878.401 1326.074,884.275C1327.577,885.499 1333.86,890.976 1342.956,896.254C1343.022,896.293 1347.706,899.221 1354.799,902.486C1355.619,902.864 1359.67,904.729 1365.271,906.7C1365.381,906.739 1373.184,909.709 1384.948,911.521C1386.518,911.763 1394.334,912.967 1404.769,912.675C1408.349,912.575 1429.888,912.183 1452.59,898.947C1454.535,897.814 1454.499,897.761 1456.593,896.366Z"/>
                </g>
                <g transform="matrix(1,0,0,1,10.610073,312.997156)">
                    <path d="M1262.844,368.467C1244.022,347.14 1234.611,320.604 1234.611,288.859C1234.611,272.57 1237.48,256.468 1243.218,240.55C1248.956,224.632 1256.822,211.027 1266.817,199.737C1268.744,197.525 1270.746,195.403 1272.821,193.369C1280.669,185.68 1289.576,179.263 1299.544,174.118C1302.384,172.652 1305.311,171.289 1308.324,170.03C1324.705,163.181 1342.612,159.757 1362.047,159.757C1388.885,159.757 1409.893,165.772 1425.071,177.803C1427.037,179.376 1428.794,180.982 1430.342,182.621C1436.082,188.7 1438.953,195.238 1438.953,202.236C1438.953,208.159 1437.009,213.11 1433.122,217.089C1429.235,221.069 1424.516,223.058 1418.963,223.058C1418.622,223.058 1418.284,223.051 1417.948,223.037C1406.431,222.553 1397.885,213.768 1392.31,196.683C1389.718,188.539 1387.636,182.986 1386.063,180.025C1384.489,177.063 1382.222,174.472 1379.261,172.251C1373.523,167.994 1366.489,165.865 1358.16,165.865C1347.24,165.865 1337.152,168.919 1327.898,175.027C1319.754,180.395 1312.859,187.104 1307.214,195.156C1301.568,203.207 1296.617,213.341 1292.36,225.557C1285.882,244.251 1282.643,262.576 1282.643,280.529C1282.643,297.003 1285.604,313.106 1291.527,328.838C1297.45,344.571 1305.501,357.713 1315.682,368.263C1331.599,384.921 1350.294,393.25 1371.764,393.25C1384.071,393.25 1394.912,390.542 1404.289,385.127C1403.726,384.801 1403.174,384.46 1402.634,384.103C1396.563,380.09 1393.528,375.052 1393.528,368.989C1393.528,359.894 1403.03,352.225 1422.033,345.983C1432.327,342.773 1445.062,340.142 1460.239,338.092C1475.416,336.041 1490.262,335.015 1504.779,335.015C1521.144,335.015 1538.168,336.442 1555.852,339.295C1564.671,340.718 1572.769,342.341 1580.144,344.163L1580.144,188.232L1541.584,188.232L1541.584,183.79C1557.2,179.903 1571.615,172.407 1584.829,161.301C1592.757,154.453 1599.123,147.651 1603.928,140.895C1608.733,134.139 1613.298,125.393 1617.622,114.658L1621.226,105.496L1634.559,105.496L1634.559,177.682L1726.453,177.682L1726.453,188.232L1634.559,188.232L1635.116,354.268C1634.91,369.663 1635.206,382.996 1635.213,393.769C1635.358,396.583 1635.431,399.647 1635.431,402.962L1635.431,501.941C1635.431,518.705 1636.486,530.118 1638.598,536.182C1643.085,548.844 1653.907,555.175 1671.063,555.175C1679.245,555.175 1685.646,554.194 1690.265,552.232C1694.884,550.271 1700.36,546.347 1706.695,540.462L1713.425,543.137C1703.924,561.863 1682.148,571.226 1648.1,571.226C1643.481,571.226 1639.054,571.036 1634.82,570.657C1621.876,569.497 1610.733,566.559 1601.382,561.863C1593.203,557.755 1584.754,550.627 1576.044,540.462C1562.225,548.823 1551.066,554.952 1542.566,558.849C1540.188,559.939 1538.018,560.854 1536.056,561.595C1518.9,568.015 1498.973,571.226 1476.273,571.226C1470.89,571.226 1465.712,571.063 1460.741,570.738C1438.905,569.31 1421.054,564.747 1407.187,557.048C1406.528,556.682 1405.883,556.312 1405.25,555.936C1389.517,546.605 1381.65,534.224 1381.65,518.794C1381.65,503.992 1388.645,491.597 1402.634,481.61C1410.552,476.082 1419.658,471.668 1429.952,468.368C1437.143,466.063 1446.589,463.737 1458.289,461.388C1463.336,460.375 1468.803,459.358 1474.69,458.337C1497.653,454.413 1514.611,451.114 1525.565,448.439C1536.518,445.764 1545.69,442.554 1553.081,438.809C1561.527,434.707 1567.334,429.892 1570.501,424.363C1573.668,418.835 1575.252,411.166 1575.252,401.357C1575.252,380.492 1569.445,365.244 1557.832,355.613C1552.553,351.155 1545.756,347.588 1537.442,344.913C1529.128,342.238 1520.484,340.9 1511.51,340.9C1500.688,340.9 1491.054,342.773 1482.608,346.518C1474.162,350.263 1467.827,355.435 1463.604,362.034L1453.706,377.549C1450.425,382.76 1445.511,386.351 1438.965,388.322C1434.982,389.522 1430.393,390.122 1425.201,390.122C1420.82,390.122 1416.786,389.644 1413.097,388.688C1411.672,389.816 1410.203,390.875 1408.69,391.862C1395.364,400.562 1377.039,404.911 1353.718,404.911C1316.329,404.911 1286.992,393.806 1265.707,371.595C1264.729,370.565 1263.775,369.522 1262.844,368.467ZM1575.754,489.803C1575.947,486.575 1576.044,483.219 1576.044,479.737L1576.044,435.063C1561.791,443.089 1546.086,450.133 1528.93,456.197C1509.662,463.152 1496.333,468.413 1488.943,471.98C1481.552,475.547 1474.822,479.827 1468.751,484.82C1456.346,495.164 1450.143,507.202 1450.143,520.934C1450.143,532.704 1454.96,542.424 1464.594,550.092C1474.228,557.761 1486.435,561.595 1501.216,561.595C1514.149,561.595 1526.357,558.876 1537.838,553.436C1539.44,552.677 1540.986,551.883 1542.477,551.053C1551.676,545.934 1558.774,539.461 1563.77,531.634C1570.695,521.522 1574.689,507.579 1575.754,489.803Z"/>
                </g>
            </g>
        </g>
    </g>
</svg>
