<?xml version="1.0" encoding="UTF-8" standalone="no"?><!DOCTYPE svg PUBLIC "-//W3C//DTD SVG 1.1//EN" "http://www.w3.org/Graphics/SVG/1.1/DTD/svg11.dtd"><svg width="100%" height="100%" viewBox="0 0 3291 816" version="1.1" xmlns="http://www.w3.org/2000/svg" xmlns:xlink="http://www.w3.org/1999/xlink" xml:space="preserve" xmlns:serif="http://www.serif.com/" style="fill-rule:evenodd;clip-rule:evenodd;stroke-linejoin:round;stroke-miterlimit:2;"><g><g id="d"><path d="M2932.626,316.225l357.781,0l0,-47.704l-357.781,0l0,47.704Z"/><rect x="2932.626" y="268.521" width="47.704" height="263.863"/><rect x="3242.703" y="0" width="47.704" height="380.194"/><rect x="3242.703" y="268.521" width="47.704" height="263.863"/><path d="M2932.626,532.384l357.781,0l0,-47.704l-357.781,0l0,47.704Z"/></g><g id="e"><path d="M2870.126,490.484l-357.781,0l0,47.704l357.781,0l0,-47.704Z"/><rect x="2512.345" y="274.325" width="47.704" height="263.863"/><path d="M2870.126,274.325l-357.781,0l0,47.704l357.781,-0l0,-47.704Z"/></g><g id="g"><path d="M2092.064,490.484l357.781,0l0,47.704l-357.781,0l0,-47.704Z"/><rect x="2092.064" y="274.325" width="47.704" height="263.863"/><rect x="2402.141" y="435.772" width="47.704" height="380.194"/><path d="M2449.845,815.966l-142.97,-0l0,-47.704l142.97,0l0,47.704Z"/><path d="M2092.064,274.325l357.781,0l0,47.704l-357.781,-0l0,-47.704Z"/><rect x="2402.141" y="274.325" width="47.704" height="263.863"/></g><g id="o"><path d="M1671.783,488.203l357.781,0l0,47.704l-357.781,0l0,-47.704Z"/><rect x="1981.86" y="272.044" width="47.704" height="263.863"/><rect x="1671.783" y="272.044" width="47.704" height="263.863"/><path d="M1671.783,272.044l357.781,0l0,47.704l-357.781,-0l0,-47.704Z"/></g><g id="l"><rect x="1466.313" y="152.19" width="47.704" height="380.194"/><path d="M1466.313,532.384l142.97,-0l0,-47.704l-142.97,0l0,47.704Z"/></g><g id="a"><path d="M1046.032,488.203l357.781,0l0,47.704l-357.781,0l0,-47.704Z"/><rect x="1356.109" y="272.044" width="47.704" height="263.863"/><path d="M1046.032,272.044l357.781,0l0,47.704l-357.781,-0l0,-47.704Z"/></g><g id="t"><rect x="840.562" y="157.994" width="47.704" height="380.194"/><path d="M840.562,157.994l142.97,0l-0,47.704l-142.97,-0l0,-47.704Z"/></g><g id="a1" serif:id="a"><path d="M420.281,490.484l357.781,0l0,47.704l-357.781,0l0,-47.704Z"/><rect x="730.358" y="274.325" width="47.704" height="263.863"/><path d="M420.281,274.325l357.781,0l0,47.704l-357.781,-0l0,-47.704Z"/></g><g id="c"><path d="M357.781,490.484l-357.781,0l0,47.704l357.781,0l0,-47.704Z"/><rect x="-0" y="274.325" width="47.704" height="263.863"/><path d="M357.781,274.325l-357.781,0l0,47.704l357.781,-0l0,-47.704Z"/></g></g></svg>